<?xml version="1.0" standalone="no"?>
<!DOCTYPE svg PUBLIC "-//W3C//DTD SVG 20010904//EN"
 "http://www.w3.org/TR/2001/REC-SVG-20010904/DTD/svg10.dtd">
<svg version="1.0" xmlns="http://www.w3.org/2000/svg"
 width="512.000000pt" height="512.000000pt" viewBox="0 0 512.000000 512.000000"
 preserveAspectRatio="xMidYMid meet">
<metadata>
Created by potrace 1.14, written by Peter Selinger 2001-2017
</metadata>
<g transform="translate(0.000000,512.000000) scale(0.100000,-0.100000)"
fill="#000000" stroke="none">
<path d="M2353 5113 c-23 -4 -133 -98 -133 -113 0 -11 51 -22 121 -25 57 -3
119 -27 119 -46 0 -6 8 -9 18 -8 9 1 36 -3 59 -9 34 -10 40 -16 36 -32 -3 -11
-1 -20 5 -20 5 0 13 -10 17 -22 4 -14 8 -18 12 -10 7 18 31 14 29 -5 -1 -14 6
-18 29 -17 19 1 35 -5 43 -17 21 -30 87 -59 136 -59 24 0 46 -4 48 -9 2 -5 15
-13 30 -16 23 -6 26 -4 21 13 -3 12 -18 33 -34 49 -16 15 -29 34 -29 41 0 7
-7 15 -15 18 -8 4 -15 10 -15 16 0 5 5 6 11 3 6 -4 19 2 30 14 11 12 24 19 29
16 4 -3 10 1 13 9 5 13 -29 36 -63 42 -8 2 -26 16 -40 33 -17 19 -56 42 -118
66 -225 88 -283 103 -359 88z"/>
<path d="M1736 4983 c-4 -5 -11 -8 -14 -8 -4 -1 -25 -5 -47 -10 -22 -4 -42 -8
-45 -8 -3 1 -14 -10 -24 -24 l-19 -26 44 6 c24 3 55 8 69 11 14 4 51 9 83 13
60 6 75 23 38 43 -23 12 -74 13 -85 3z"/>
<path d="M1896 4981 c-3 -4 5 -12 17 -17 24 -11 113 6 101 19 -10 10 -112 9
-118 -2z"/>
<path d="M2025 4951 c-7 -13 0 -16 63 -31 28 -6 55 -16 58 -21 3 -5 14 -9 24
-9 10 0 23 -7 28 -17 6 -9 16 -14 25 -10 9 3 18 -1 21 -9 7 -18 -5 -23 -70
-27 -28 -2 -56 -7 -62 -11 -22 -13 -3 -24 36 -22 20 2 50 -4 66 -12 40 -20 82
-31 139 -38 38 -5 47 -3 47 9 0 8 -12 24 -27 35 -36 26 -21 42 18 20 30 -18
63 -14 56 6 -3 11 -33 27 -106 61 -19 8 -50 15 -70 15 -20 0 -51 9 -68 20 -18
11 -33 18 -33 15 0 -2 -21 5 -46 15 -49 21 -89 26 -99 11z"/>
<path d="M1847 4868 c-12 -6 -15 -16 -11 -34 6 -23 5 -24 -57 -25 -35 -1 -79
-1 -97 0 -23 2 -38 -3 -47 -15 -19 -27 -74 -22 -138 11 -52 27 -59 29 -79 16
-51 -33 -134 -76 -152 -78 -36 -6 -196 -115 -196 -134 0 -6 -20 -8 -48 -5 -81
7 -136 -27 -237 -149 -28 -33 -56 -66 -63 -74 -39 -41 -123 -153 -154 -206
-64 -108 -115 -251 -133 -375 -7 -44 -8 -225 -2 -265 2 -11 7 -47 11 -80 19
-150 48 -236 84 -250 29 -11 30 11 2 100 -19 62 -28 114 -29 168 -3 172 53
217 73 59 9 -67 43 -202 62 -247 10 -22 18 -42 19 -45 1 -3 4 -12 8 -20 17
-43 23 -88 14 -120 -5 -19 -10 -56 -11 -81 -1 -39 5 -53 37 -94 39 -51 74 -78
191 -147 67 -40 71 -41 113 -30 24 7 50 12 59 12 34 0 81 -32 119 -81 44 -55
89 -87 132 -95 67 -12 131 -52 178 -111 25 -32 55 -75 66 -95 26 -51 76 -106
113 -125 17 -9 49 -31 70 -49 49 -42 71 -42 119 -3 36 30 39 30 62 15 42 -28
65 -86 67 -173 2 -94 -7 -114 -93 -210 -81 -90 -112 -156 -111 -240 0 -104 51
-212 167 -353 35 -44 82 -118 105 -164 45 -96 70 -120 149 -142 166 -48 209
-112 186 -284 -4 -30 -9 -58 -11 -61 -2 -3 -6 -21 -9 -39 -3 -19 -20 -68 -37
-110 -16 -41 -47 -126 -68 -189 -23 -67 -54 -136 -76 -168 -45 -66 -38 -78 44
-78 69 0 155 34 292 116 161 95 319 178 503 263 94 43 156 83 297 190 58 44
139 106 180 137 96 72 128 104 220 216 29 35 75 123 109 207 46 111 46 111
132 205 95 104 122 156 123 246 0 58 -4 81 -25 121 -45 88 -141 143 -289 164
-173 26 -208 44 -288 155 -68 95 -104 117 -231 141 -136 26 -168 41 -243 115
-126 123 -206 163 -281 140 -78 -24 -113 -24 -154 -2 -21 11 -64 32 -96 45
l-58 25 -39 -37 c-40 -37 -53 -82 -30 -97 13 -8 13 -45 1 -45 -5 0 -21 4 -35
9 -21 9 -24 14 -19 43 3 18 6 45 7 61 0 15 6 27 12 27 6 0 17 7 24 15 22 26
-35 18 -104 -14 -64 -31 -132 -91 -174 -154 -25 -38 -42 -47 -42 -24 0 8 -11
24 -25 37 -27 25 -84 29 -155 10 -80 -22 -138 -2 -160 55 -5 12 -7 31 -5 41
20 114 22 203 6 241 -21 52 -58 65 -181 64 -120 -1 -120 -1 -80 59 9 14 36 69
59 124 38 87 42 101 30 122 -12 24 -28 29 -84 25 -63 -4 -95 -22 -134 -74 -62
-84 -74 -91 -155 -88 -40 1 -98 63 -124 133 -48 128 -14 331 68 406 26 25 100
67 100 57 0 -3 9 -1 19 5 44 23 90 22 147 -4 31 -14 60 -24 64 -21 4 2 10 18
13 34 7 34 25 40 122 36 62 -3 70 -6 73 -24 4 -23 17 -25 74 -12 34 8 37 7 47
-18 13 -32 24 -114 23 -162 -1 -32 4 -40 38 -63 50 -33 58 -33 74 5 14 34 9
77 -21 176 -35 117 -18 161 85 215 38 20 71 46 83 65 20 32 37 43 69 43 10 0
26 10 34 22 14 20 13 25 -8 67 -32 60 -37 88 -20 102 11 9 18 3 33 -32 l19
-44 34 73 c30 65 37 74 76 89 33 12 52 29 80 71 39 58 43 61 107 89 22 9 45
19 50 21 6 3 7 1 2 -3 -7 -9 20 -45 35 -45 4 0 22 13 38 29 23 21 38 27 60 25
22 -3 32 1 36 14 3 9 10 25 16 36 6 11 6 22 0 28 -12 12 -45 -20 -38 -38 3 -7
-1 -17 -8 -23 -15 -13 -96 17 -96 35 0 6 -9 19 -20 29 -25 23 -26 35 -2 35 26
0 34 11 21 27 -22 26 -82 15 -175 -32 -49 -25 -78 -36 -64 -25 85 70 242 108
348 86 15 -3 30 2 44 16 12 12 30 23 39 23 15 1 14 -3 -7 -30 -26 -35 -31 -64
-11 -69 6 -2 32 -9 57 -16 25 -7 53 -22 63 -34 l19 -20 19 24 c20 27 24 40 10
40 -5 0 -11 10 -14 21 -4 15 -11 20 -21 15 -9 -3 -23 -9 -31 -12 -9 -4 -21 6
-35 28 -20 32 -20 43 -5 80 5 14 -4 22 -48 42 -48 21 -55 27 -50 46 5 20 3 22
-33 17 -46 -6 -67 4 -113 55 -67 74 -131 100 -131 52 0 -24 -3 -26 -27 -21
-56 11 -85 27 -79 42 10 27 -46 46 -121 41 -38 -2 -77 -5 -88 -5 -13 -1 -28
-15 -39 -36 -18 -32 -18 -36 -2 -60 9 -14 23 -25 32 -25 25 0 10 -23 -22 -33
-49 -16 -55 -25 -48 -77 3 -26 2 -50 -2 -53 -21 -12 -56 15 -74 58 -11 25 -23
45 -27 46 -44 4 -208 50 -230 65 -42 27 -23 77 35 94 20 6 60 13 87 16 28 2
76 6 108 9 32 3 67 10 79 16 19 10 19 12 5 21 -26 14 -20 24 16 26 17 2 40 11
50 20 15 15 15 20 4 36 -17 23 -73 16 -107 -14 -31 -26 -48 -25 -62 4 -13 30
-28 37 -51 24z m713 -622 c0 -2 -7 -7 -16 -10 -8 -3 -12 -2 -9 4 6 10 25 14
25 6z"/>
<path d="M3090 4805 c0 -8 7 -15 15 -15 9 0 27 -7 40 -16 36 -24 50 -13 25 19
-24 30 -80 39 -80 12z"/>
<path d="M3580 4571 c0 -6 5 -13 10 -16 6 -3 10 -17 10 -30 0 -13 6 -29 13
-34 6 -6 28 -24 48 -41 30 -24 39 -27 48 -16 19 22 -7 73 -57 111 -44 34 -72
44 -72 26z"/>
<path d="M3955 4200 c-10 -15 35 -64 80 -89 25 -13 59 -47 88 -87 43 -60 71
-84 83 -72 6 7 -71 124 -111 169 -17 19 -53 47 -79 62 -56 31 -53 30 -61 17z"/>
<path d="M4250 3916 c0 -2 7 -22 14 -45 18 -51 25 -117 30 -296 3 -94 10 -155
20 -184 11 -30 15 -68 13 -118 -4 -79 3 -106 72 -277 18 -43 41 -114 52 -158
11 -44 32 -107 48 -141 15 -34 34 -90 41 -125 14 -68 39 -110 59 -98 21 14 62
108 78 180 14 67 19 250 8 306 -21 105 -30 143 -51 200 -13 36 -29 74 -34 85
-5 11 -32 92 -60 180 -104 327 -135 396 -198 437 -59 40 -92 59 -92 54z"/>
<path d="M1675 3136 c-36 -16 -61 -59 -42 -73 16 -12 20 -11 104 16 69 22 74
22 98 7 14 -9 25 -21 25 -26 0 -5 18 -13 40 -16 23 -4 46 -15 53 -25 7 -10 26
-23 41 -29 20 -7 26 -16 24 -32 -3 -22 -1 -23 71 -20 94 3 115 13 69 35 -18 9
-39 25 -45 36 -18 29 -113 75 -219 106 -112 32 -180 39 -219 21z"/>
<path d="M2249 2942 c15 -28 16 -27 -29 -41 -22 -6 -40 -15 -39 -19 0 -4 13
-18 30 -30 30 -24 85 -32 110 -16 7 4 49 9 92 10 85 3 108 13 88 38 -20 23
-133 64 -201 72 -61 7 -62 6 -51 -14z"/>
</g>
</svg>
